<svg width="67" height="51" viewBox="0 0 67 51" fill="none" xmlns="http://www.w3.org/2000/svg">
<path d="M23.9166 0.745605C22.5242 0.745605 21.1889 1.16045 20.2043 1.89887C19.2197 2.6373 18.6666 3.63882 18.6666 4.68311V14.2501H5.91663C4.52424 14.2501 3.18888 14.6649 2.20432 15.4034C1.21975 16.1418 0.666626 17.1433 0.666626 18.1876V32.8126C0.666626 34.9861 3.01863 36.7501 5.91663 36.7501H18.6666V46.3149C18.6666 48.4906 21.0186 50.2524 23.9166 50.2524H43.4166C44.809 50.2524 46.1444 49.8375 47.1289 49.0991C48.1135 48.3607 48.6666 47.3591 48.6666 46.3149V36.7501H61.4166C62.809 36.7501 64.1444 36.3353 65.1289 35.5968C66.1135 34.8584 66.6666 33.8569 66.6666 32.8126V18.1876C66.6666 17.1433 66.1135 16.1418 65.1289 15.4034C64.1444 14.6649 62.809 14.2501 61.4166 14.2501H48.6666V4.68536C48.6666 3.64107 48.1135 2.63955 47.1289 1.90112C46.1444 1.1627 44.809 0.747856 43.4166 0.747856H23.9166V0.745605Z" fill="#DC0639"/>
</svg>
